<svg xmlns="http://www.w3.org/2000/svg" xmlns:xlink="http://www.w3.org/1999/xlink" version="1.1" x="0px" y="0px" viewBox="0 0 32 40" enable-background="new 0 0 32 32" xml:space="preserve"><path d="M31,16.7c-0.3-0.1-0.7,0-0.9,0.2c-2,2.4-5,3.7-8.1,3.7c-5.9,0-10.7-4.8-10.7-10.7c0-3.1,1.3-6,3.7-8.1  c0.3-0.2,0.3-0.6,0.2-0.9c-0.1-0.3-0.4-0.5-0.8-0.5c-8,0.8-14,7.4-14,15.5c0,8.6,7,15.5,15.5,15.5c8,0,14.7-6,15.5-14  C31.5,17.1,31.3,16.8,31,16.7z"/><text x="0" y="47" fill="#000000" font-size="5px" font-weight="bold" font-family="'Helvetica Neue', Helvetica, Arial-Unicode, Arial, Sans-serif">Created by Creative Stall</text><text x="0" y="52" fill="#000000" font-size="5px" font-weight="bold" font-family="'Helvetica Neue', Helvetica, Arial-Unicode, Arial, Sans-serif">from the Noun Project</text></svg>