<svg xmlns="http://www.w3.org/2000/svg" xmlns:xlink="http://www.w3.org/1999/xlink" version="1.1" baseProfile="basic" x="0px" y="0px" viewBox="0 0 90 112.5" xml:space="preserve"><path d="M77.591,5.873l-4.925,8.53l-4.925,8.53c-0.528,0.914,0.132,2.056,1.187,2.056h6.207  c-1.705,13.935-13.603,24.766-27.991,24.766h-12.12c-18.8,0-34.192,14.876-35.023,33.475c-0.038,0.859,0.632,1.583,1.491,1.583  h3.871c0.785,0,1.448-0.608,1.486-1.391C7.577,68.51,19.937,56.603,35.024,56.603h12.12c18.17,0,33.152-13.894,34.887-31.615h6.595  c1.055,0,1.714-1.142,1.187-2.056l-4.925-8.53l-4.925-8.53C79.438,4.959,78.119,4.959,77.591,5.873z"/><text x="0" y="105" fill="#000000" font-size="5px" font-weight="bold" font-family="'Helvetica Neue', Helvetica, Arial-Unicode, Arial, Sans-serif">Created by iconpacks</text><text x="0" y="110" fill="#000000" font-size="5px" font-weight="bold" font-family="'Helvetica Neue', Helvetica, Arial-Unicode, Arial, Sans-serif">from the Noun Project</text></svg>