<svg xmlns="http://www.w3.org/2000/svg" xmlns:xlink="http://www.w3.org/1999/xlink" xml:space="preserve" style="shape-rendering:geometricPrecision;text-rendering:geometricPrecision;image-rendering:optimizeQuality;" viewBox="0 0 173.397 216.74624999999997" x="0px" y="0px" fill-rule="evenodd" clip-rule="evenodd"><defs><style type="text/css">
   
    .fil0 {fill:black}
   
  </style></defs><g><g><path class="fil0" d="M54.7609 13.3912l11.3554 19.6707c0.4619,0.7974 0.2006,1.8206 -0.5896,2.2968 -11.0452,6.6887 -24.7332,17.713 -27.2133,32.2298 -1.3722,8.0432 0.9279,16.3477 6.8439,24.7332 1.1819,-6.0043 5.048,-12.7811 11.0665,-19.2405 6.8905,-7.3908 15.5753,-13.2538 22.6766,-15.3035 0.7493,-0.2188 1.5452,0.1059 1.9334,0.7797l11.3603 19.6707 15.5862 -52.2216 -53.0194 -12.6153zm-8.2725 85.15c-0.4985,0 -0.9819,-0.2187 -1.3101,-0.6173 -8.5054,-10.3506 -11.938,-20.7504 -10.2022,-30.9069 2.5906,-15.1448 16.0091,-26.5536 27.3861,-33.6868l-12.5019 -21.6501c-0.335,-0.5856 -0.2933,-1.3157 0.1087,-1.859 0.4072,-0.5397 1.0902,-0.7902 1.7498,-0.635l58.5871 13.9383c0.4508,0.1093 0.842,0.3986 1.0748,0.8008 0.2332,0.4055 0.2892,0.8855 0.1552,1.3335l-17.2224 57.7037c-0.1936,0.6491 -0.7516,1.1185 -1.4254,1.1996 -0.6702,0.0776 -1.3264,-0.2505 -1.6616,-0.8361l-12.642 -21.8969c-13.6462,4.7095 -31.06,22.7295 -30.4076,35.3307 0.0403,0.7301 -0.3984,1.404 -1.0793,1.6686 -0.1964,0.0775 -0.4058,0.1129 -0.6092,0.1129z"/><path class="fil0" d="M65.6194 147.394l53.0193 12.6117 -11.36 -19.6709c-0.4588,-0.7973 -0.1984,-1.8167 0.5884,-2.2929 11.0462,-6.6924 24.7332,-17.713 27.2132,-32.2299 1.3764,-8.0433 -0.9242,-16.3477 -6.8438,-24.7367 -1.181,6.0042 -5.0448,12.7847 -11.0666,19.244 -6.8862,7.3872 -15.5752,13.2503 -22.6732,15.3035 -0.7468,0.2151 -1.5452,-0.1059 -1.9368,-0.7796l-11.3544 -19.6746 -15.5861 52.2254zm56.4515 16.8626c-0.1302,0 -0.2622,-0.0139 -0.3962,-0.0457l-58.581 -13.9384c-0.4556,-0.1057 -0.8444,-0.3985 -1.0772,-0.8007 -0.2325,-0.4022 -0.2893,-0.8855 -0.1553,-1.33l17.2202 -57.7075c0.1937,-0.6455 0.7538,-1.1181 1.4242,-1.1957 0.6745,-0.0777 1.3265,0.2504 1.6651,0.8361l12.6444 21.8968c13.646,-4.7131 31.0576,-22.7294 30.405,-35.3342 -0.0378,-0.7302 0.3954,-1.404 1.0794,-1.6651 0.6816,-0.2647 1.4536,-0.0635 1.9192,0.501 8.5064,10.354 11.9382,20.7504 10.2024,30.9068 -2.5882,15.1483 -16.0092,26.5572 -27.386,33.6868l12.4996 21.6498c0.338,0.5856 0.2956,1.3161 -0.11,1.8593 -0.3204,0.4339 -0.8292,0.6809 -1.3538,0.6807z"/></g></g><text x="0" y="188.397" fill="#000000" font-size="5px" font-weight="bold" font-family="'Helvetica Neue', Helvetica, Arial-Unicode, Arial, Sans-serif">Created by Zoya Khan</text><text x="0" y="193.397" fill="#000000" font-size="5px" font-weight="bold" font-family="'Helvetica Neue', Helvetica, Arial-Unicode, Arial, Sans-serif">from the Noun Project</text></svg>