<svg xmlns="http://www.w3.org/2000/svg" xmlns:xlink="http://www.w3.org/1999/xlink" xmlns:serif="http://www.serif.com/" viewBox="0 0 32 40" version="1.1" xml:space="preserve" style="" x="0px" y="0px" fill-rule="evenodd" clip-rule="evenodd" stroke-linejoin="round" stroke-miterlimit="2"><g transform="matrix(1,0,0,1,-296,0)"><g transform="matrix(1,0,0,1,0,-185)"><path d="M311,212L311,214C311,214.552 311.448,215 312,215C312.552,215 313,214.552 313,214L313,212C313,211.448 312.552,211 312,211C311.448,211 311,211.448 311,212ZM303.293,208.293L301.293,210.293C300.903,210.683 300.903,211.317 301.293,211.707C301.683,212.097 302.317,212.097 302.707,211.707L304.707,209.707C305.097,209.317 305.097,208.683 304.707,208.293C304.317,207.903 303.683,207.903 303.293,208.293ZM319.293,209.707L321.293,211.707C321.683,212.097 322.317,212.097 322.707,211.707C323.097,211.317 323.097,210.683 322.707,210.293L320.707,208.293C320.317,207.903 319.683,207.903 319.293,208.293C318.903,208.683 318.903,209.317 319.293,209.707ZM312,192C307.033,192 303,196.033 303,201C303,205.967 307.033,210 312,210C316.967,210 321,205.967 321,201C321,196.033 316.967,192 312,192ZM323,202L325,202C325.552,202 326,201.552 326,201C326,200.448 325.552,200 325,200L323,200C322.448,200 322,200.448 322,201C322,201.552 322.448,202 323,202ZM299,202L301,202C301.552,202 302,201.552 302,201C302,200.448 301.552,200 301,200L299,200C298.448,200 298,200.448 298,201C298,201.552 298.448,202 299,202ZM304.707,192.293L302.707,190.293C302.317,189.903 301.683,189.903 301.293,190.293C300.903,190.683 300.903,191.317 301.293,191.707L303.293,193.707C303.683,194.097 304.317,194.097 304.707,193.707C305.097,193.317 305.097,192.683 304.707,192.293ZM320.707,193.707L322.707,191.707C323.097,191.317 323.097,190.683 322.707,190.293C322.317,189.903 321.683,189.903 321.293,190.293L319.293,192.293C318.903,192.683 318.903,193.317 319.293,193.707C319.683,194.097 320.317,194.097 320.707,193.707ZM313,190L313,188C313,187.448 312.552,187 312,187C311.448,187 311,187.448 311,188L311,190C311,190.552 311.448,191 312,191C312.552,191 313,190.552 313,190Z"/></g></g><text x="0" y="47" fill="#000000" font-size="5px" font-weight="bold" font-family="'Helvetica Neue', Helvetica, Arial-Unicode, Arial, Sans-serif">Created by Utari Nuraeni</text><text x="0" y="52" fill="#000000" font-size="5px" font-weight="bold" font-family="'Helvetica Neue', Helvetica, Arial-Unicode, Arial, Sans-serif">from the Noun Project</text></svg>