<?xml version="1.0"?>
<svg xmlns="http://www.w3.org/2000/svg" width="50" height="50" viewBox="0 0 50 50">
    <path d="M 12 0 C 10.897 0 10 0.897 10 2 L 10 22 C 10 23.103 10.897 24 12 24 L 42 24 C 43.103 24 44 23.103 44 22 L 44 2 C 44 0.897 43.103 0 42 0 L 12 0 z M 22.5 5 L 31.5 5 C 32.328 5 33 5.672 33 6.5 C 33 7.328 32.328 8 31.5 8 L 22.5 8 C 21.672 8 21 7.328 21 6.5 C 21 5.672 21.672 5 22.5 5 z M 13.40625 27.90625 C 10.90625 27.90625 8.7 28.8 0.5 32.5 C -1.7763568e-15 32.7 -0.2 33.3125 0 33.8125 L 5.3125 45.59375 C 5.4125 45.89375 5.70625 46.0875 5.90625 46.1875 C 6.20625 46.2885 6.4875 46.19375 6.6875 46.09375 L 9.40625 44.3125 C 10.60625 43.5115 11.0875 43.3885 12.6875 44.1875 L 14.8125 45.3125 C 17.3125 46.6125 20.6875 48.40625 21.6875 48.90625 C 23.2875 49.70625 24.5875 50 25.6875 50 C 27.6875 50 28.9875 49.20625 30.1875 48.40625 C 31.3875 47.60625 46.0125 38.0875 47.3125 37.1875 C 48.9135 36.0875 49.90625 34.8125 49.90625 33.8125 C 50.00525 31.0105 47.30625 30.3125 44.90625 31.8125 L 34.1875 39 C 32.4875 40 31 39.90625 30 39.90625 L 24 39.90625 C 21.3 39.90625 18.00625 38.90625 17.90625 38.90625 C 17.60625 38.80625 17.49375 38.5125 17.59375 38.3125 C 17.69375 38.0125 17.8875 37.9 18.1875 38 L 18.3125 38 C 18.6125 38.101 21.9125 39 24.3125 39 L 30 39 C 30.8 39 31.4125 38.801 31.8125 38.5 C 32.2125 38.2 32.4875 37.9 32.6875 37.5 C 32.6875 37.4 32.8125 37.4115 32.8125 37.3125 L 32.8125 37.1875 C 32.9135 36.8875 32.90625 36.70625 32.90625 36.40625 C 32.90625 35.20625 31.90625 34.00625 29.90625 33.90625 C 28.30525 33.80625 26.1125 33.40625 24.3125 32.90625 C 23.3125 32.60625 22.5875 32.29375 22.1875 32.09375 C 21.8875 31.89375 21.5875 31.5875 21.1875 31.1875 C 19.9875 29.8875 18.20625 27.90625 13.40625 27.90625 z M 35.09375 28 C 33.99375 28 32.8125 28.39375 31.8125 29.09375 C 31.1125 29.49375 28.1125 31.401 26.3125 32.5 C 27.6135 32.8 29 33 30 33 C 30.7 33 31.40625 33.20625 31.90625 33.40625 L 38.40625 29 C 38.40625 29 36.89475 28 35.09375 28 z M 41.6875 29 C 40.6875 29 39.5125 29.4 37.8125 30.5 L 32.8125 33.90625 C 33.6125 34.60725 34 35.50625 34 36.40625 C 34 37.00625 33.80625 37.7125 33.40625 38.3125 L 33.5 38.1875 L 33.59375 38.09375 L 44.59375 30.8125 C 44.29375 29.5135 42.6875 29 41.6875 29 z"/>
</svg>
